<mxfile host="app.diagrams.net" modified="2023-08-27T08:28:47.544Z" agent="Mozilla/5.0 (Macintosh; Intel Mac OS X 10_15_7) AppleWebKit/537.36 (KHTML, like Gecko) Chrome/116.0.0.0 Safari/537.36" etag="C0p1bgb-vfkBg9D7EWW4" version="21.6.9" type="github">
  <diagram id="3228e29e-7158-1315-38df-8450db1d8a1d" name="Page-1">
    <mxGraphModel dx="1250" dy="514" grid="0" gridSize="10" guides="1" tooltips="1" connect="1" arrows="1" fold="1" page="1" pageScale="1" pageWidth="1200" pageHeight="500" background="#EFF1F3" math="0" shadow="0">
      <root>
        <mxCell id="0" />
        <mxCell id="1" parent="0" />
        <mxCell id="nzwpzUQgBmsU5mZzszNc-8" value="&lt;div style=&quot;font-family: Menlo, Monaco, &amp;quot;Courier New&amp;quot;, monospace; line-height: 24px;&quot;&gt;&lt;div style=&quot;&quot;&gt;&lt;font color=&quot;#333333&quot; style=&quot;font-size: 30px;&quot;&gt;tag&lt;/font&gt;&lt;/div&gt;&lt;/div&gt;" style="rounded=1;whiteSpace=wrap;html=1;strokeWidth=5;fontSize=30;strokeColor=none;fillColor=#9AC7BF;align=center;" parent="1" vertex="1">
          <mxGeometry x="313" y="1318" width="153.36" height="74" as="geometry" />
        </mxCell>
        <mxCell id="nzwpzUQgBmsU5mZzszNc-9" value="&lt;div style=&quot;font-family: Menlo, Monaco, &amp;quot;Courier New&amp;quot;, monospace; line-height: 24px;&quot;&gt;&lt;div style=&quot;&quot;&gt;&lt;font color=&quot;#333333&quot; style=&quot;font-size: 30px;&quot;&gt;value&lt;/font&gt;&lt;/div&gt;&lt;/div&gt;" style="rounded=1;whiteSpace=wrap;html=1;strokeWidth=5;fontSize=30;strokeColor=none;fillColor=#FDD276;align=center;" parent="1" vertex="1">
          <mxGeometry x="466.36" y="1318" width="377.64" height="74" as="geometry" />
        </mxCell>
        <mxCell id="8Wo9BOlvC_cUprFf0G_a-1" value="&lt;div style=&quot;&quot;&gt;&lt;font style=&quot;font-size: 35px;&quot; color=&quot;#c89932&quot;&gt;大小端转换&lt;/font&gt;&lt;/div&gt;" style="text;html=1;strokeColor=none;fillColor=none;align=left;verticalAlign=middle;whiteSpace=wrap;rounded=0;" parent="1" vertex="1">
          <mxGeometry x="723" y="1171.89" width="191" height="50" as="geometry" />
        </mxCell>
        <mxCell id="8Wo9BOlvC_cUprFf0G_a-21" value="&lt;font color=&quot;#4a919b&quot; size=&quot;1&quot; style=&quot;&quot;&gt;&lt;b style=&quot;font-size: 40px;&quot;&gt;Age&lt;/b&gt;&lt;/font&gt;" style="text;html=1;strokeColor=none;fillColor=none;align=center;verticalAlign=middle;whiteSpace=wrap;rounded=0;" parent="1" vertex="1">
          <mxGeometry x="502.91" y="1429" width="154" height="46" as="geometry" />
        </mxCell>
        <mxCell id="8Wo9BOlvC_cUprFf0G_a-22" value="" style="shape=curlyBracket;whiteSpace=wrap;html=1;rounded=1;labelPosition=left;verticalLabelPosition=middle;align=right;verticalAlign=middle;rotation=-90;strokeWidth=5;strokeColor=#4A919B;" parent="1" vertex="1">
          <mxGeometry x="570.12" y="1158" width="20" height="509.24" as="geometry" />
        </mxCell>
        <mxCell id="aA7P79PKVV6ushU_fPNP-4" value="&lt;div style=&quot;&quot;&gt;&lt;font style=&quot;font-size: 39px;&quot; color=&quot;#4a919b&quot;&gt;00011000&lt;/font&gt;&lt;br&gt;&lt;/div&gt;" style="text;html=1;strokeColor=none;fillColor=none;align=left;verticalAlign=middle;whiteSpace=wrap;rounded=0;" parent="1" vertex="1">
          <mxGeometry x="287" y="1220.51" width="186" height="121" as="geometry" />
        </mxCell>
        <mxCell id="aA7P79PKVV6ushU_fPNP-12" value="&lt;font color=&quot;#c89932&quot; size=&quot;1&quot; style=&quot;&quot;&gt;&lt;b style=&quot;font-size: 40px;&quot;&gt;300&lt;/b&gt;&lt;/font&gt;" style="text;html=1;strokeColor=none;fillColor=none;align=center;verticalAlign=middle;whiteSpace=wrap;rounded=0;" parent="1" vertex="1">
          <mxGeometry x="570.12" y="1040" width="154" height="46" as="geometry" />
        </mxCell>
        <mxCell id="TdISh6HJtPsjNMIRyihG-2" value="&lt;div style=&quot;&quot;&gt;&lt;font color=&quot;#5a6eab&quot; style=&quot;font-size: 39px;&quot;&gt;1&lt;/font&gt;&lt;font color=&quot;#c89932&quot; style=&quot;font-size: 39px;&quot;&gt;0101100&lt;/font&gt;&lt;br&gt;&lt;/div&gt;" style="text;html=1;strokeColor=none;fillColor=none;align=left;verticalAlign=middle;whiteSpace=wrap;rounded=0;" vertex="1" parent="1">
          <mxGeometry x="475" y="1252.51" width="177.82" height="57" as="geometry" />
        </mxCell>
        <mxCell id="TdISh6HJtPsjNMIRyihG-3" value="&lt;div style=&quot;&quot;&gt;&lt;font color=&quot;#5a6eab&quot; style=&quot;font-size: 39px;&quot;&gt;0&lt;/font&gt;&lt;font color=&quot;#c89932&quot; style=&quot;font-size: 39px;&quot;&gt;0000010&lt;/font&gt;&lt;br&gt;&lt;/div&gt;" style="text;html=1;strokeColor=none;fillColor=none;align=left;verticalAlign=middle;whiteSpace=wrap;rounded=0;" vertex="1" parent="1">
          <mxGeometry x="658" y="1255.51" width="186" height="51" as="geometry" />
        </mxCell>
        <mxCell id="TdISh6HJtPsjNMIRyihG-4" value="&lt;div style=&quot;&quot;&gt;&lt;font color=&quot;#5a6eab&quot; style=&quot;font-size: 39px;&quot;&gt;1&lt;/font&gt;&lt;font color=&quot;#c89932&quot; style=&quot;font-size: 39px;&quot;&gt;0101100&lt;/font&gt;&lt;br&gt;&lt;/div&gt;" style="text;html=1;strokeColor=none;fillColor=none;align=left;verticalAlign=middle;whiteSpace=wrap;rounded=0;" vertex="1" parent="1">
          <mxGeometry x="657.12" y="1097" width="177.82" height="57" as="geometry" />
        </mxCell>
        <mxCell id="TdISh6HJtPsjNMIRyihG-5" value="&lt;div style=&quot;&quot;&gt;&lt;font color=&quot;#5a6eab&quot; style=&quot;font-size: 39px;&quot;&gt;0&lt;/font&gt;&lt;font color=&quot;#c89932&quot; style=&quot;font-size: 39px;&quot;&gt;0000010&lt;/font&gt;&lt;br&gt;&lt;/div&gt;" style="text;html=1;strokeColor=none;fillColor=none;align=left;verticalAlign=middle;whiteSpace=wrap;rounded=0;" vertex="1" parent="1">
          <mxGeometry x="470.91" y="1100" width="186" height="51" as="geometry" />
        </mxCell>
        <mxCell id="TdISh6HJtPsjNMIRyihG-8" value="" style="endArrow=classic;html=1;rounded=0;entryX=0.5;entryY=1;entryDx=0;entryDy=0;exitX=0.5;exitY=0;exitDx=0;exitDy=0;strokeColor=#C89932;dashed=1;strokeWidth=3;" edge="1" parent="1" source="TdISh6HJtPsjNMIRyihG-2" target="TdISh6HJtPsjNMIRyihG-4">
          <mxGeometry width="50" height="50" relative="1" as="geometry">
            <mxPoint x="580" y="1252.51" as="sourcePoint" />
            <mxPoint x="693" y="1166.51" as="targetPoint" />
          </mxGeometry>
        </mxCell>
        <mxCell id="TdISh6HJtPsjNMIRyihG-10" value="" style="endArrow=classic;html=1;rounded=0;exitX=0.5;exitY=0;exitDx=0;exitDy=0;entryX=0.475;entryY=0.98;entryDx=0;entryDy=0;entryPerimeter=0;strokeColor=#C89932;dashed=1;strokeWidth=3;" edge="1" parent="1" source="TdISh6HJtPsjNMIRyihG-3" target="TdISh6HJtPsjNMIRyihG-5">
          <mxGeometry width="50" height="50" relative="1" as="geometry">
            <mxPoint x="758" y="1241" as="sourcePoint" />
            <mxPoint x="808" y="1191" as="targetPoint" />
          </mxGeometry>
        </mxCell>
      </root>
    </mxGraphModel>
  </diagram>
</mxfile>
